<svg width="30" height="25" viewBox="0 0 30 25" fill="none" xmlns="http://www.w3.org/2000/svg">
  <g clip-path="url(#clip0_380_64)">
    <path
      d="M15 0C6.7158 0 0 5.5965 0 12.5C0 18.362 4.8432 23.281 11.3766 24.632V16.32H8.2836V12.5H11.3766V10.854C11.3766 6.5995 13.6872 4.6275 18.6996 4.6275C19.65 4.6275 21.2898 4.783 21.9606 4.938V8.4005C21.6066 8.3695 20.9916 8.354 20.2278 8.354C17.7684 8.354 16.818 9.1305 16.818 11.149V12.5H21.7176L20.8758 16.32H16.818V24.9085C24.2454 24.161 30.0006 18.891 30.0006 12.5C30 5.5965 23.2842 0 15 0Z"
      fill="#1877F2" />
  </g>
  <defs>
    <clipPath id="clip0_380_64">
      <rect width="30" height="25" fill="white" />
    </clipPath>
  </defs>
</svg>