<svg width="30" height="25" viewBox="0 0 30 25" fill="none" xmlns="http://www.w3.org/2000/svg">
  <g clip-path="url(#clip0_380_65)">
    <path
      d="M15 2.25098C19.0078 2.25098 19.4824 2.26562 21.0586 2.32422C22.5234 2.37793 23.3145 2.58301 23.8418 2.75391C24.5391 2.97852 25.043 3.25195 25.5645 3.68652C26.0918 4.12598 26.4141 4.54102 26.6836 5.12207C26.8887 5.56152 27.1348 6.22559 27.1992 7.44141C27.2695 8.75977 27.2871 9.15527 27.2871 12.4902C27.2871 15.8301 27.2695 16.2256 27.1992 17.5391C27.1348 18.7598 26.8887 19.4189 26.6836 19.8584C26.4141 20.4395 26.0859 20.8594 25.5645 21.2939C25.0371 21.7334 24.5391 22.002 23.8418 22.2266C23.3145 22.3975 22.5176 22.6025 21.0586 22.6563C19.4766 22.7148 19.002 22.7295 15 22.7295C10.9922 22.7295 10.5176 22.7148 8.94141 22.6563C7.47656 22.6025 6.68555 22.3975 6.1582 22.2266C5.46094 22.002 4.95703 21.7285 4.43555 21.2939C3.9082 20.8545 3.58594 20.4395 3.31641 19.8584C3.11133 19.4189 2.86523 18.7549 2.80078 17.5391C2.73047 16.2207 2.71289 15.8252 2.71289 12.4902C2.71289 9.15039 2.73047 8.75488 2.80078 7.44141C2.86523 6.2207 3.11133 5.56152 3.31641 5.12207C3.58594 4.54102 3.91406 4.12109 4.43555 3.68652C4.96289 3.24707 5.46094 2.97852 6.1582 2.75391C6.68555 2.58301 7.48242 2.37793 8.94141 2.32422C10.5176 2.26562 10.9922 2.25098 15 2.25098ZM15 0C10.9277 0 10.418 0.0146484 8.81836 0.0732422C7.22461 0.131836 6.12891 0.34668 5.17969 0.654297C4.18945 0.976562 3.35156 1.40137 2.51953 2.09961C1.68164 2.79297 1.17188 3.49121 0.785156 4.31152C0.416016 5.10742 0.158203 6.01562 0.0878906 7.34375C0.0175781 8.68164 0 9.10645 0 12.5C0 15.8936 0.0175781 16.3184 0.0878906 17.6514C0.158203 18.9795 0.416016 19.8926 0.785156 20.6836C1.17188 21.5088 1.68164 22.207 2.51953 22.9004C3.35156 23.5938 4.18945 24.0234 5.17383 24.3408C6.12891 24.6484 7.21875 24.8633 8.8125 24.9219C10.4121 24.9805 10.9219 24.9951 14.9941 24.9951C19.0664 24.9951 19.5762 24.9805 21.1758 24.9219C22.7695 24.8633 23.8652 24.6484 24.8145 24.3408C25.7988 24.0234 26.6367 23.5938 27.4688 22.9004C28.3008 22.207 28.8164 21.5088 29.1973 20.6885C29.5664 19.8926 29.8242 18.9844 29.8945 17.6563C29.9648 16.3232 29.9824 15.8984 29.9824 12.5049C29.9824 9.11133 29.9648 8.68652 29.8945 7.35352C29.8242 6.02539 29.5664 5.11231 29.1973 4.32129C28.8281 3.49121 28.3184 2.79297 27.4805 2.09961C26.6484 1.40625 25.8105 0.976563 24.8262 0.65918C23.8711 0.351562 22.7813 0.136719 21.1875 0.078125C19.582 0.0146484 19.0723 0 15 0Z"
      fill="white" />
    <path
      d="M15 6.0791C10.7461 6.0791 7.29492 8.95508 7.29492 12.5C7.29492 16.0449 10.7461 18.9209 15 18.9209C19.2539 18.9209 22.7051 16.0449 22.7051 12.5C22.7051 8.95508 19.2539 6.0791 15 6.0791ZM15 16.665C12.2402 16.665 10.002 14.7998 10.002 12.5C10.002 10.2002 12.2402 8.33496 15 8.33496C17.7598 8.33496 19.998 10.2002 19.998 12.5C19.998 14.7998 17.7598 16.665 15 16.665Z"
      fill="white" />
    <path
      d="M24.8086 5.82515C24.8086 6.65523 24 7.32418 23.0098 7.32418C22.0137 7.32418 21.2109 6.65035 21.2109 5.82515C21.2109 4.99507 22.0195 4.32613 23.0098 4.32613C24 4.32613 24.8086 4.99996 24.8086 5.82515Z"
      fill="white" />
  </g>
  <defs>
    <clipPath id="clip0_380_65">
      <rect width="30" height="25" fill="white" />
    </clipPath>
  </defs>
</svg>