<svg width="30" height="25" viewBox="0 0 30 25" fill="none" xmlns="http://www.w3.org/2000/svg">
  <path
    d="M27.7793 0H2.21484C0.990234 0 0 0.805664 0 1.80176V23.1934C0 24.1895 0.990234 25 2.21484 25H27.7793C29.0039 25 30 24.1895 30 23.1982V1.80176C30 0.805664 29.0039 0 27.7793 0ZM8.90039 21.3037H4.44727V9.37012H8.90039V21.3037ZM6.67383 7.74414C5.24414 7.74414 4.08984 6.78223 4.08984 5.5957C4.08984 4.40918 5.24414 3.44727 6.67383 3.44727C8.09766 3.44727 9.25195 4.40918 9.25195 5.5957C9.25195 6.77734 8.09766 7.74414 6.67383 7.74414ZM25.5645 21.3037H21.1172V15.5029C21.1172 14.1211 21.0879 12.3389 18.8027 12.3389C16.4883 12.3389 16.1367 13.8477 16.1367 15.4053V21.3037H11.6953V9.37012H15.9609V11.001H16.0195C16.6113 10.0635 18.0645 9.07227 20.2266 9.07227C24.7324 9.07227 25.5645 11.543 25.5645 14.7559V21.3037Z"
    fill="white" />
</svg>