<svg width="30" height="25" viewBox="0 0 30 25" fill="none" xmlns="http://www.w3.org/2000/svg">
  <path
    d="M11.355 2.188C5.09 2.188 0 6.193 0 11.113c0 2.84 1.716 5.37 4.36 7.004l-.9 2.815 3.332-1.64c1.37.467 2.904.746 4.563.746.553 0 1.091-.031 1.62-.092a7.373 7.373 0 0 1-.541-2.79c0-4.497 4.373-8.154 9.778-8.154.12 0 .238.002.357.006C21.325 5.108 16.797 2.188 11.355 2.188Zm-3.68 7.202c-.777 0-1.407-.53-1.407-1.184 0-.653.63-1.184 1.407-1.184.778 0 1.408.531 1.408 1.184 0 .654-.63 1.184-1.408 1.184Zm7.36 0c-.777 0-1.407-.53-1.407-1.184 0-.653.63-1.184 1.407-1.184.778 0 1.408.531 1.408 1.184 0 .654-.63 1.184-1.408 1.184Z"
    fill="white" />
  <path
    d="M30 17.156c0-3.592-3.49-6.51-7.788-6.51-4.298 0-7.789 2.918-7.789 6.51 0 3.593 3.49 6.51 7.789 6.51 1.127 0 2.194-.205 3.16-.57l2.65 1.307-.717-2.242C28.95 20.968 30 19.158 30 17.156Zm-10.401-1.16c-.659 0-1.193-.45-1.193-1.004 0-.554.534-1.004 1.193-1.004.66 0 1.194.45 1.194 1.004 0 .554-.534 1.004-1.194 1.004Zm5.226 0c-.66 0-1.194-.45-1.194-1.004 0-.554.535-1.004 1.194-1.004.66 0 1.194.45 1.194 1.004 0 .554-.535 1.004-1.194 1.004Z"
    fill="white" />
</svg>
