<svg width="85" height="85" viewBox="0 0 85 85" fill="none" xmlns="http://www.w3.org/2000/svg">
  <rect width="85" height="85" rx="8" fill="#5169B2" fill-opacity="0.15" />
  <path
    d="M33.8518 57.666H37.4074V53.065H42.1481V49.6143H37.4074V45.0134H33.8518V49.6143H29.1111V53.065H33.8518V57.666ZM45.7037 55.9406H57.5555V52.4899H45.7037V55.9406ZM45.7037 50.1894H57.5555V46.7387H45.7037V50.1894ZM48.3111 41.4477L51.6296 38.227L54.9481 41.4477L57.437 39.0322L54.1185 35.6965L57.437 32.4758L54.9481 30.0603L51.6296 33.281L48.3111 30.0603L45.8222 32.4758L49.1407 35.6965L45.8222 39.0322L48.3111 41.4477ZM29.7037 37.4218H41.5555V33.9711H29.7037V37.4218ZM26.7407 64.5674C25.437 64.5674 24.321 64.1169 23.3926 63.2158C22.4642 62.3148 22 61.2317 22 59.9664V27.7599C22 26.4946 22.4642 25.4115 23.3926 24.5105C24.321 23.6094 25.437 23.1589 26.7407 23.1589H59.9259C61.2296 23.1589 62.3457 23.6094 63.2741 24.5105C64.2025 25.4115 64.6667 26.4946 64.6667 27.7599V59.9664C64.6667 61.2317 64.2025 62.3148 63.2741 63.2158C62.3457 64.1169 61.2296 64.5674 59.9259 64.5674H26.7407ZM26.7407 59.9664H59.9259V27.7599H26.7407V59.9664Z"
    fill="#5169B2" />
</svg>