<svg width="85" height="85" viewBox="0 0 85 85" fill="none" xmlns="http://www.w3.org/2000/svg">
  <rect width="85" height="85" rx="8" fill="#EC73AC" fill-opacity="0.15" />
  <g clip-path="url(#clip0_409_14)">
    <path
      d="M26.8453 64C25.2226 64 24.0718 63.2376 23.3928 61.7128C22.7138 60.1883 22.9152 58.7902 23.9969 57.5183L36.942 42.1483V27.7039H34.3458C33.829 27.7039 33.3994 27.528 33.0568 27.1761C32.7143 26.8243 32.543 26.3828 32.543 25.8517C32.543 25.3209 32.7143 24.8796 33.0568 24.5278C33.3994 24.1759 33.829 24 34.3458 24H51.6542C52.171 24 52.6006 24.1759 52.9432 24.5278C53.2857 24.8796 53.457 25.3209 53.457 25.8517C53.457 26.3828 53.2857 26.8243 52.9432 27.1761C52.6006 27.528 52.171 27.7039 51.6542 27.7039H49.058V42.1483L62.0031 57.5183C63.0849 58.7902 63.2862 60.1883 62.6072 61.7128C61.9282 63.2376 60.7774 64 59.1547 64H26.8453ZM30.8121 58.4444H55.1879L46.9663 48.6294H39.0337L30.8121 58.4444ZM26.4125 60.2961H59.5875L45.4519 43.4817V27.7039H40.5481V43.4817L26.4125 60.2961Z"
      fill="#EC73AC" />
  </g>
  <defs>
    <clipPath id="clip0_409_14">
      <rect width="42" height="42" fill="white" transform="translate(20 21)" />
    </clipPath>
  </defs>
</svg>