<svg width="85" height="85" viewBox="0 0 85 85" fill="none" xmlns="http://www.w3.org/2000/svg">
  <rect width="85" height="85" rx="8" fill="#D87028" fill-opacity="0.15" />
  <path
    d="M27.0936 47.6248C25.6355 47.6248 24.4011 47.1175 23.3905 46.1028C22.3802 45.0881 21.875 43.8559 21.875 42.4063C21.875 40.9566 22.3823 39.7244 23.397 38.7097C24.4117 37.695 25.6439 37.1877 27.0936 37.1877V32.0938C27.0936 31.25 27.4036 30.5183 28.0236 29.8986C28.6433 29.2786 29.375 28.9686 30.2188 28.9686H37.2814C37.2814 27.5105 37.7866 26.2761 38.7969 25.2655C39.8072 24.2552 41.0416 23.75 42.5 23.75C43.9584 23.75 45.1928 24.2573 46.2031 25.272C47.2134 26.2867 47.7186 27.5189 47.7186 28.9686H54.7813C55.625 28.9686 56.3567 29.2786 56.9764 29.8986C57.5964 30.5183 57.9064 31.25 57.9064 32.0938V37.1877C59.3645 37.1877 60.5989 37.695 61.6095 38.7097C62.6198 39.7244 63.125 40.9566 63.125 42.4063C63.125 43.8559 62.6177 45.0881 61.603 46.1028C60.5883 47.1175 59.3561 47.6248 57.9064 47.6248V56.2498C57.9064 57.0936 57.5964 57.8255 56.9764 58.4455C56.3567 59.0652 55.625 59.375 54.7813 59.375H30.2188C29.375 59.375 28.6433 59.0652 28.0236 58.4455C27.4036 57.8255 27.0936 57.0936 27.0936 56.2498V47.6248ZM37.8983 42.6097C38.3202 42.1831 38.5311 41.665 38.5311 41.0553C38.5311 40.4456 38.3178 39.9298 37.8913 39.508C37.4644 39.0861 36.9461 38.8752 36.3364 38.8752C35.7267 38.8752 35.2109 39.0884 34.7891 39.515C34.3672 39.9419 34.1563 40.4602 34.1563 41.0698C34.1563 41.6795 34.3697 42.1953 34.7966 42.6172C35.2231 43.0391 35.7413 43.25 36.3509 43.25C36.9606 43.25 37.4764 43.0366 37.8983 42.6097ZM50.2109 42.6097C50.6328 42.1831 50.8438 41.665 50.8438 41.0553C50.8438 40.4456 50.6303 39.9298 50.2034 39.508C49.7769 39.0861 49.2588 38.8752 48.6491 38.8752C48.0394 38.8752 47.5236 39.0884 47.1017 39.515C46.6798 39.9419 46.4689 40.4602 46.4689 41.0698C46.4689 41.6795 46.6822 42.1953 47.1088 42.6172C47.5356 43.0391 48.0539 43.25 48.6636 43.25C49.2733 43.25 49.7891 43.0366 50.2109 42.6097ZM34.7502 51.7189H50.2498V48.5938H34.7502V51.7189ZM30.2188 56.2498H54.7813V32.0938H30.2188V56.2498Z"
    fill="#D87028" />
</svg>