<svg width="135" height="134" viewBox="0 0 135 134" fill="none" xmlns="http://www.w3.org/2000/svg">
<path opacity="0.5" d="M83 0H20.75C15.2468 0 9.96891 1.87438 6.07753 5.2108C2.18615 8.54722 0 13.0724 0 17.7908V106.745C0 111.463 2.18615 115.988 6.07753 119.325C9.96891 122.661 15.2468 124.536 20.75 124.536H44.1664C41.5237 121.792 39.2381 118.809 37.35 115.64H20.75C17.9984 115.64 15.3595 114.703 13.4138 113.035C11.4681 111.367 10.375 109.104 10.375 106.745V106.718H33.2622C32.3069 103.81 31.6679 100.832 31.3532 97.8227H10.375V17.7908C10.375 15.4316 11.4681 13.169 13.4138 11.5008C15.3595 9.83259 17.9984 8.8954 20.75 8.8954H83C85.7516 8.8954 88.3905 9.83259 90.3362 11.5008C92.2819 13.169 93.375 15.4316 93.375 17.7908V44.6727C96.944 44.9573 100.402 45.5059 103.75 46.3183V17.7908C103.75 13.0724 101.564 8.54722 97.6725 5.2108C93.7811 1.87438 88.5032 0 83 0ZM31.125 17.7908C28.3734 17.7908 25.7345 18.728 23.7888 20.3962C21.8431 22.0644 20.75 24.327 20.75 26.6862V35.5816C20.75 37.9408 21.8431 40.2034 23.7888 41.8716C25.7345 43.5398 28.3734 44.477 31.125 44.477H72.625C75.3766 44.477 78.0155 43.5398 79.9612 41.8716C81.9069 40.2034 83 37.9408 83 35.5816V26.6862C83 24.327 81.9069 22.0644 79.9612 20.3962C78.0155 18.728 75.3766 17.7908 72.625 17.7908H31.125ZM31.125 26.6862H72.625V35.5816H31.125V26.6862ZM134.875 93.4017C134.875 104.018 129.956 114.2 121.201 121.707C112.445 129.214 100.57 133.431 88.1875 133.431C75.8052 133.431 63.9301 129.214 55.1745 121.707C46.4188 114.2 41.5 104.018 41.5 93.4017C41.5 82.7853 46.4188 72.6036 55.1745 65.0967C63.9301 57.5898 75.8052 53.3724 88.1875 53.3724C100.57 53.3724 112.445 57.5898 121.201 65.0967C129.956 72.6036 134.875 82.7853 134.875 93.4017ZM72.625 106.7C72.6248 107.487 72.8681 108.26 73.3302 108.94C73.7922 109.62 74.4563 110.183 75.2548 110.571C76.0534 110.959 76.9576 111.158 77.8754 111.149C78.7932 111.139 79.6916 110.921 80.4789 110.516L106.416 97.2C107.186 96.8051 107.823 96.246 108.265 95.5772C108.707 94.9084 108.939 94.1527 108.939 93.3839C108.939 92.6151 108.707 91.8594 108.265 91.1906C107.823 90.5218 107.186 89.9627 106.416 89.5678L80.4789 76.2514C79.6923 75.8473 78.7949 75.6291 77.878 75.6192C76.9611 75.6093 76.0576 75.8079 75.2594 76.1948C74.4612 76.5818 73.7968 77.1432 73.3341 77.8219C72.8713 78.5006 72.6266 79.2724 72.625 80.0586V106.7Z" fill="#E6D3D4"/>
</svg>
