<svg width="149" height="83" viewBox="0 0 149 83" fill="none" xmlns="http://www.w3.org/2000/svg">
<path opacity="0.2" d="M6.17383 3H135.793C136.389 3 136.966 3.06566 137.482 3.18457C138.003 3.30439 138.411 3.46643 138.699 3.62695C138.817 3.69227 138.901 3.75151 138.962 3.79785V57.9287C138.901 57.9752 138.817 58.036 138.699 58.1016C138.411 58.2621 138.003 58.4241 137.482 58.5439C136.966 58.6629 136.389 58.7285 135.793 58.7285H6.17383C5.57708 58.7289 5.00027 58.6627 4.4834 58.5439C3.96243 58.4242 3.55296 58.2623 3.26367 58.1016C3.14556 58.0359 3.06059 57.9762 3 57.9297V3.79785C3.06062 3.75135 3.14564 3.69155 3.26367 3.62598C3.55296 3.46525 3.96244 3.30331 4.4834 3.18359C5.00024 3.06487 5.57716 2.99965 6.17383 3Z" fill="#472023" stroke="#E6D3D4" stroke-width="6"/>
<path opacity="0.8" d="M139.793 17.7598H10.1753C9.36415 17.7593 8.56075 17.8477 7.81114 18.02C7.06153 18.1922 6.38043 18.4449 5.80683 18.7636C5.23322 19.0823 4.77838 19.4607 4.46834 19.8772C4.1583 20.2937 3.99915 20.74 4 21.1907V76.0571C3.99915 76.5078 4.1583 76.9541 4.46834 77.3706C4.77838 77.7871 5.23322 78.1655 5.80683 78.4842C6.38043 78.8028 7.06153 79.0555 7.81114 79.2278C8.56075 79.4001 9.36415 79.4885 10.1753 79.488H139.793C140.604 79.488 141.406 79.3992 142.155 79.2268C142.904 79.0543 143.585 78.8015 144.157 78.4829C144.73 78.1642 145.185 77.786 145.494 77.3698C145.804 76.9535 145.963 76.5075 145.962 76.0571V21.1907C145.963 20.7403 145.804 20.2943 145.494 19.878C145.185 19.4618 144.73 19.0835 144.157 18.7649C143.585 18.4462 142.904 18.1935 142.155 18.021C141.406 17.8485 140.604 17.7598 139.793 17.7598Z" stroke="#E6D3D4" stroke-width="6" stroke-linecap="round" stroke-linejoin="round"/>
<path opacity="0.2" d="M7 74.7395V21.5579C7.0606 21.5114 7.1456 21.4516 7.26367 21.386C7.55297 21.2253 7.96243 21.0633 8.4834 20.9436C9.00026 20.8249 9.57713 20.7597 10.1738 20.76H10.1758L104.143 20.7561L7 74.7395Z" fill="#472023" stroke="#E6D3D4" stroke-width="6"/>
<path opacity="0.4" d="M121.273 69.2023C118.841 69.2023 116.433 68.9362 114.186 68.4191C111.939 67.902 109.898 67.1441 108.178 66.1887C106.458 65.2332 105.094 64.099 104.163 62.8506C103.233 61.6023 102.754 60.2643 102.754 58.9131C102.754 57.5619 103.233 56.2239 104.163 54.9756C105.094 53.7272 106.458 52.593 108.178 51.6375C109.898 50.6821 111.939 49.9242 114.186 49.4071C116.433 48.89 118.841 48.6239 121.273 48.6239M71.8963 69.2023V48.6239L81.1561 58.9131L90.4159 48.6239V69.2023M47.2078 62.3405H59.5521M47.2078 55.4822H59.5521M113.865 30.7916C113.866 29.8569 114.297 28.9378 115.117 28.1216C115.936 27.3054 117.118 26.6191 118.549 26.1278C119.98 25.6366 121.614 25.3566 123.294 25.3146C124.975 25.2726 126.647 25.4699 128.152 25.8878C129.657 26.3056 130.945 26.9302 131.893 27.7022C132.841 28.4743 133.419 29.3681 133.571 30.299C133.723 31.2299 133.444 32.1669 132.761 33.0211C132.078 33.8753 131.013 34.6183 129.668 35.1798L113.859 41.7656H133.617M34.8636 69.2023H22.5193C21.7081 69.2028 20.9047 69.1144 20.1551 68.9421C19.4055 68.7699 18.7244 68.5172 18.1508 68.1985C17.5772 67.8798 17.1224 67.5014 16.8123 67.0849C16.5023 66.6684 16.3431 66.2221 16.344 65.7714V52.0512C16.344 51.6008 16.5038 51.1549 16.8142 50.7388C17.1246 50.3227 17.5796 49.9448 18.1531 49.6264C18.7266 49.3081 19.4074 49.0558 20.1566 48.8837C20.9058 48.7117 21.7087 48.6234 22.5193 48.6239H34.8636M16.344 58.9131H28.6882" stroke="#E6D3D4" stroke-width="6" stroke-linecap="round" stroke-linejoin="round"/>
</svg>
