<svg width="71" height="61" viewBox="0 0 71 61" fill="none" xmlns="http://www.w3.org/2000/svg">
<path opacity="0.8" d="M69.3043 14.2591L54.3692 1.45391C53.8337 0.993077 53.1973 0.627425 52.4967 0.377929C51.796 0.128432 51.0447 0 50.286 0C49.5273 0 48.7761 0.128432 48.0754 0.377929C47.3747 0.627425 46.7383 0.993077 46.2028 1.45391L4.0851 37.5651C2.95698 38.5324 1.93667 39.9651 1.19742 41.4869C0.458179 43.0153 0 44.6527 0 46.0194V60.8745H17.3261C18.9201 60.8745 20.8221 60.4817 22.6047 59.8479C24.3874 59.2141 26.0546 58.3393 27.1827 57.372L69.3043 21.2608C69.8417 20.8017 70.2682 20.2561 70.5592 19.6553C70.8502 19.0545 71 18.4104 71 17.7599C71 17.1094 70.8502 16.4653 70.5592 15.8645C70.2682 15.2638 69.8417 14.7182 69.3043 14.2591ZM10.6575 41.269L42.5875 13.8926L47.331 17.9596L15.4009 45.336L10.6575 41.269ZM17.3261 54.2722H11.5507L7.70047 50.9711V46.0194C7.70047 45.7652 7.82753 45.0125 8.30881 44.0222C8.34731 43.9562 19.7325 53.721 19.7325 53.721C18.4927 54.1633 17.6225 54.2722 17.3261 54.2722ZM22.8666 51.737L18.1231 47.67L50.0531 20.2935L54.7966 24.3606L22.8666 51.737ZM57.5187 22.0267L45.3057 11.5554L50.2841 7.28704L62.4893 17.7583L57.5187 22.0267Z" fill="#E6D3D4"/>
</svg>
